<svg xmlns="http://www.w3.org/2000/svg" width="1600" height="1640" viewBox="0 0 1600 1640">
  <rect x="0" y="0" width="1600" height="1640" fill="#ffffff"/>

  <!-- Lotus mandala mark -->
  <svg x="350" y="120" width="900" height="900" viewBox="0 0 800 800">
    <defs>
      <linearGradient id="gold" x1="0" y1="0" x2="0" y2="1"><stop offset="0" stop-color="#E7CD86"/><stop offset="0.5" stop-color="#C9A24A"/><stop offset="1" stop-color="#A07A2C"/></linearGradient>
      <radialGradient id="goldr" cx="0.5" cy="0.4" r="0.62"><stop offset="0" stop-color="#EAD191"/><stop offset="0.6" stop-color="#C9A24A"/><stop offset="1" stop-color="#9c7327"/></radialGradient>
    </defs>
    <line x1="400" y1="400" x2="529.3" y2="87.7" stroke="#C9A24A" stroke-width="2" stroke-opacity="0.30"/><line x1="400" y1="400" x2="712.3" y2="270.7" stroke="#C9A24A" stroke-width="2" stroke-opacity="0.30"/><line x1="400" y1="400" x2="712.3" y2="529.3" stroke="#C9A24A" stroke-width="2" stroke-opacity="0.30"/><line x1="400" y1="400" x2="529.3" y2="712.3" stroke="#C9A24A" stroke-width="2" stroke-opacity="0.30"/><line x1="400" y1="400" x2="270.7" y2="712.3" stroke="#C9A24A" stroke-width="2" stroke-opacity="0.30"/><line x1="400" y1="400" x2="87.7" y2="529.3" stroke="#C9A24A" stroke-width="2" stroke-opacity="0.30"/><line x1="400" y1="400" x2="87.7" y2="270.7" stroke="#C9A24A" stroke-width="2" stroke-opacity="0.30"/><line x1="400" y1="400" x2="270.7" y2="87.7" stroke="#C9A24A" stroke-width="2" stroke-opacity="0.30"/>
    <circle cx="400" cy="400" r="338" fill="none" stroke="url(#gold)" stroke-width="2.5"/>
    <g transform="translate(400 400) rotate(0)"><path d="M 0 -42 C 104 -129.5, 52 -262, 0 -292 C -52 -262, -104 -129.5, 0 -42 Z" fill="url(#gold)" stroke="#8a6a24" stroke-width="2"/></g><g transform="translate(400 400) rotate(45)"><path d="M 0 -42 C 104 -129.5, 52 -262, 0 -292 C -52 -262, -104 -129.5, 0 -42 Z" fill="url(#gold)" stroke="#8a6a24" stroke-width="2"/></g><g transform="translate(400 400) rotate(90)"><path d="M 0 -42 C 104 -129.5, 52 -262, 0 -292 C -52 -262, -104 -129.5, 0 -42 Z" fill="url(#gold)" stroke="#8a6a24" stroke-width="2"/></g><g transform="translate(400 400) rotate(135)"><path d="M 0 -42 C 104 -129.5, 52 -262, 0 -292 C -52 -262, -104 -129.5, 0 -42 Z" fill="url(#gold)" stroke="#8a6a24" stroke-width="2"/></g><g transform="translate(400 400) rotate(180)"><path d="M 0 -42 C 104 -129.5, 52 -262, 0 -292 C -52 -262, -104 -129.5, 0 -42 Z" fill="url(#gold)" stroke="#8a6a24" stroke-width="2"/></g><g transform="translate(400 400) rotate(225)"><path d="M 0 -42 C 104 -129.5, 52 -262, 0 -292 C -52 -262, -104 -129.5, 0 -42 Z" fill="url(#gold)" stroke="#8a6a24" stroke-width="2"/></g><g transform="translate(400 400) rotate(270)"><path d="M 0 -42 C 104 -129.5, 52 -262, 0 -292 C -52 -262, -104 -129.5, 0 -42 Z" fill="url(#gold)" stroke="#8a6a24" stroke-width="2"/></g><g transform="translate(400 400) rotate(315)"><path d="M 0 -42 C 104 -129.5, 52 -262, 0 -292 C -52 -262, -104 -129.5, 0 -42 Z" fill="url(#gold)" stroke="#8a6a24" stroke-width="2"/></g>
    <circle cx="529.3" cy="87.7" r="18" fill="url(#goldr)" stroke="#8a6a24" stroke-width="1.5"/><circle cx="712.3" cy="270.7" r="18" fill="url(#goldr)" stroke="#8a6a24" stroke-width="1.5"/><circle cx="712.3" cy="529.3" r="18" fill="url(#goldr)" stroke="#8a6a24" stroke-width="1.5"/><circle cx="529.3" cy="712.3" r="18" fill="url(#goldr)" stroke="#8a6a24" stroke-width="1.5"/><circle cx="270.7" cy="712.3" r="18" fill="url(#goldr)" stroke="#8a6a24" stroke-width="1.5"/><circle cx="87.7" cy="529.3" r="18" fill="url(#goldr)" stroke="#8a6a24" stroke-width="1.5"/><circle cx="87.7" cy="270.7" r="18" fill="url(#goldr)" stroke="#8a6a24" stroke-width="1.5"/><circle cx="270.7" cy="87.7" r="18" fill="url(#goldr)" stroke="#8a6a24" stroke-width="1.5"/>
    <circle cx="400" cy="400" r="50" fill="none" stroke="url(#gold)" stroke-width="3"/><circle cx="400" cy="400" r="27" fill="url(#goldr)" stroke="#8a6a24" stroke-width="1.5"/><circle cx="400" cy="400" r="8" fill="#0b0a0c"/>
  </svg>

  <!-- Gold divider -->
  <rect x="660" y="1190" width="280" height="3" fill="#C9A24A"/>

  <!-- Wordmark -->
  <text x="800" y="1420" text-anchor="middle" font-family="DejaVu Sans, Arial, sans-serif" font-weight="bold" font-size="86" letter-spacing="6" fill="#1a1714">SOVEREIGN AGENTIC OS</text>
</svg>
